<?xml version="1.0" encoding="utf-8"?>
<svg version="1.1" xmlns:xlink="http://www.w3.org/1999/xlink" width="50px" height="40px" xmlns="http://www.w3.org/2000/svg">
  <defs>
    <mask fill="white" id="clip55">
      <path d="M 26 30  C 16 30  10 21  0 15  C 10 9  16 0  26 0  C 31.2 0  40 3  40 15  C 40 27  31.2 30  26 30  Z " fill-rule="evenodd" />
    </mask>
    <filter x="216px" y="172px" width="50px" height="40px" filterUnits="userSpaceOnUse" id="filter56">
      <feOffset dx="1" dy="1" in="SourceAlpha" result="shadowOffsetInner" />
      <feGaussianBlur stdDeviation="2.5" in="shadowOffsetInner" result="shadowGaussian" />
      <feComposite in2="shadowGaussian" operator="atop" in="SourceAlpha" result="shadowComposite" />
      <feColorMatrix type="matrix" values="0 0 0 0 0  0 0 0 0 0  0 0 0 0 0  0 0 0 0.698039215686274 0  " in="shadowComposite" />
    </filter>
    <g id="widget57">
      <path d="M 26 30  C 16 30  10 21  0 15  C 10 9  16 0  26 0  C 31.2 0  40 3  40 15  C 40 27  31.2 30  26 30  Z " fill-rule="nonzero" fill="#02a7f0" stroke="none" transform="matrix(1 0 0 1 220 176 )" />
      <path d="M 26 30  C 16 30  10 21  0 15  C 10 9  16 0  26 0  C 31.2 0  40 3  40 15  C 40 27  31.2 30  26 30  Z " stroke-width="2" stroke="#ffffff" fill="none" transform="matrix(1 0 0 1 220 176 )" mask="url(#clip55)" />
    </g>
  </defs>
  <g transform="matrix(1 0 0 1 -216 -172 )">
    <use xlink:href="#widget57" filter="url(#filter56)" />
    <use xlink:href="#widget57" />
  </g>
</svg>