<?xml version="1.0" encoding="utf-8"?>
<svg version="1.1" xmlns:xlink="http://www.w3.org/1999/xlink" width="40px" height="50px" xmlns="http://www.w3.org/2000/svg">
  <defs>
    <filter x="49px" y="210px" width="40px" height="50px" filterUnits="userSpaceOnUse" id="filter58">
      <feOffset dx="1" dy="1" in="SourceAlpha" result="shadowOffsetInner" />
      <feGaussianBlur stdDeviation="2.5" in="shadowOffsetInner" result="shadowGaussian" />
      <feComposite in2="shadowGaussian" operator="atop" in="SourceAlpha" result="shadowComposite" />
      <feColorMatrix type="matrix" values="0 0 0 0 0  0 0 0 0 0  0 0 0 0 0  0 0 0 0.698039215686274 0  " in="shadowComposite" />
    </filter>
    <g id="widget59">
      <path d="M 68 253.036928468354  C 62.2 243.40734059591  53.5 237.629587872444  53.5 228  C 53.5 222.985714285714  56.4 214.5  68 214.5  C 79.6 214.5  82.5 222.985714285714  82.5 228  C 82.5 237.629587872444  73.8 243.40734059591  68 253.036928468354  Z " fill-rule="nonzero" fill="#02a7f0" stroke="none" />
      <path d="M 68 254  C 62 244  53 238  53 228  C 53 222.8  56 214  68 214  C 80 214  83 222.8  83 228  C 83 238  74 244  68 254  Z M 68 252.073856936707  C 73.6 242.81468119182  82 237.259175744887  82 228  C 82 223.171428571429  79.2 215  68 215  C 56.8 215  54 223.171428571429  54 228  C 54 237.259175744887  62.4 242.81468119182  68 252.073856936707  Z " fill-rule="nonzero" fill="#ffffff" stroke="none" />
    </g>
  </defs>
  <g transform="matrix(1 0 0 1 -49 -210 )">
    <use xlink:href="#widget59" filter="url(#filter58)" />
    <use xlink:href="#widget59" />
  </g>
</svg>