<?xml version="1.0" encoding="utf-8"?>
<svg version="1.1" xmlns:xlink="http://www.w3.org/1999/xlink" width="40px" height="40px" xmlns="http://www.w3.org/2000/svg">
  <defs>
    <filter x="455px" y="93px" width="40px" height="40px" filterUnits="userSpaceOnUse" id="filter60">
      <feOffset dx="1" dy="1" in="SourceAlpha" result="shadowOffsetInner" />
      <feGaussianBlur stdDeviation="2.5" in="shadowOffsetInner" result="shadowGaussian" />
      <feComposite in2="shadowGaussian" operator="atop" in="SourceAlpha" result="shadowComposite" />
      <feColorMatrix type="matrix" values="0 0 0 0 0  0 0 0 0 0  0 0 0 0 0  0 0 0 0.698039215686274 0  " in="shadowComposite" />
    </filter>
    <g id="widget61">
      <path d="M 474 97  C 482.4 97  489 103.6  489 112  C 489 120.4  482.4 127  474 127  C 465.6 127  459 120.4  459 112  C 459 103.6  465.6 97  474 97  Z " fill-rule="nonzero" fill="#bc477f" stroke="none" />
      <path d="M 474 97.5  C 482.12 97.5  488.5 103.88  488.5 112  C 488.5 120.12  482.12 126.5  474 126.5  C 465.88 126.5  459.5 120.12  459.5 112  C 459.5 103.88  465.88 97.5  474 97.5  Z " stroke-width="1" stroke="#ffffff" fill="none" />
    </g>
  </defs>
  <g transform="matrix(1 0 0 1 -455 -93 )">
    <use xlink:href="#widget61" filter="url(#filter60)" />
    <use xlink:href="#widget61" />
  </g>
</svg>