<?xml version="1.0" encoding="utf-8"?>
<svg version="1.1" xmlns:xlink="http://www.w3.org/1999/xlink" width="33px" height="28px" xmlns="http://www.w3.org/2000/svg">
  <g transform="matrix(1 0 0 1 -398 -11 )">
    <path d="M 13.00234375 12.7295673076923  C 13.9705729166666 11.7816506410256  15.1364583333334 11.3076923076923  16.5 11.3076923076923  C 17.8635416666666 11.3076923076923  19.0294270833334 11.7816506410256  19.99765625 12.7295673076923  C 20.9658854166667 13.677483974359  21.45 14.8189102564103  21.45 16.1538461538462  C 21.45 17.4887820512821  20.9658854166667 18.6302083333333  19.99765625 19.578125  C 19.0294270833334 20.5260416666667  17.8635416666666 21  16.5 21  C 15.1364583333334 21  13.9705729166666 20.5260416666667  13.00234375 19.578125  C 12.0341145833333 18.6302083333333  11.55 17.4887820512821  11.55 16.1538461538462  C 11.55 14.8189102564103  12.0341145833333 13.677483974359  13.00234375 12.7295673076923  Z M 24.75 4.30769230769231  L 28.6 4.30769230769231  C 29.8145833333333 4.30769230769231  30.8515625 4.72836538461538  31.7109375 5.56971153846154  C 32.5703125 6.41105769230769  33 7.42628205128205  33 8.61538461538462  L 33 23.6923076923077  C 33 24.8814102564103  32.5703125 25.8966346153846  31.7109375 26.7379807692308  C 30.8515625 27.5793269230769  29.8145833333333 28  28.6 28  L 4.39999999999998 28  C 3.18541666666668 28  2.14843750000002 27.5793269230769  1.2890625 26.7379807692308  C 0.429687499999975 25.8966346153846  0 24.8814102564103  0 23.6923076923077  L 0 8.61538461538462  C 0 7.42628205128205  0.429687499999975 6.41105769230769  1.2890625 5.56971153846154  C 2.14843750000002 4.72836538461538  3.18541666666668 4.30769230769231  4.39999999999998 4.30769230769231  L 8.25 4.30769230769231  L 9.1265625 2.01923076923077  C 9.34427083333332 1.46955128205128  9.74244791666663 0.995592948717947  10.32109375 0.597355769230769  C 10.8997395833333 0.199118589743592  11.4927083333333 0  12.1 0  L 20.9 0  C 21.5072916666667 0  22.1002604166667 0.199118589743592  22.67890625 0.597355769230769  C 23.2575520833334 0.995592948717947  23.6557291666667 1.46955128205128  23.8734375 2.01923076923077  L 24.75 4.30769230769231  Z M 11.06015625 21.4795673076923  C 12.5669270833333 22.9547275641026  14.3802083333333 23.6923076923077  16.5 23.6923076923077  C 18.6197916666667 23.6923076923077  20.4330729166667 22.9547275641026  21.93984375 21.4795673076923  C 23.4466145833333 20.0044070512821  24.2 18.2291666666667  24.2 16.1538461538462  C 24.2 14.0785256410256  23.4466145833333 12.3032852564103  21.93984375 10.828125  C 20.4330729166667 9.35296474358974  18.6197916666667 8.61538461538462  16.5 8.61538461538462  C 14.3802083333333 8.61538461538462  12.5669270833333 9.35296474358974  11.06015625 10.828125  C 9.55338541666668 12.3032852564103  8.80000000000003 14.0785256410256  8.80000000000003 16.1538461538462  C 8.80000000000003 18.2291666666667  9.55338541666668 20.0044070512821  11.06015625 21.4795673076923  Z " fill-rule="nonzero" fill="#949494" stroke="none" transform="matrix(1 0 0 1 398 11 )" />
  </g>
</svg>