<?xml version="1.0" encoding="utf-8"?>
<svg version="1.1" xmlns:xlink="http://www.w3.org/1999/xlink" width="26px" height="27px" xmlns="http://www.w3.org/2000/svg">
  <g transform="matrix(1 0 0 1 -570 -93 )">
    <path d="M 25.4829545454546 10.3551136363636  C 25.8276515151515 10.7130681818182  26 11.1477272727273  26 11.6590909090909  L 26 15.3409090909091  C 26 15.8522727272727  25.8276515151515 16.2869318181818  25.4829545454546 16.6448863636364  C 25.1382575757576 17.0028409090909  24.719696969697 17.1818181818182  24.2272727272727 17.1818181818182  L 16.5454545454546 17.1818181818182  L 16.5454545454546 25.1590909090909  C 16.5454545454546 25.6704545454545  16.3731060606061 26.1051136363636  16.0284090909091 26.4630681818182  C 15.6837121212121 26.8210227272727  15.2651515151515 27  14.7727272727273 27  L 11.2272727272727 27  C 10.7348484848485 27  10.3162878787879 26.8210227272727  9.97159090909093 26.4630681818182  C 9.62689393939394 26.1051136363636  9.45454545454544 25.6704545454545  9.45454545454544 25.1590909090909  L 9.45454545454544 17.1818181818182  L 1.77272727272731 17.1818181818182  C 1.280303030303 17.1818181818182  0.861742424242436 17.0028409090909  0.517045454545439 16.6448863636364  C 0.172348484848499 16.2869318181818  0 15.8522727272727  0 15.3409090909091  L 0 11.6590909090909  C 0 11.1477272727273  0.172348484848499 10.7130681818182  0.517045454545439 10.3551136363636  C 0.861742424242436 9.99715909090909  1.280303030303 9.81818181818182  1.77272727272731 9.81818181818182  L 9.45454545454544 9.81818181818182  L 9.45454545454544 1.84090909090909  C 9.45454545454544 1.32954545454546  9.62689393939394 0.894886363636361  9.97159090909093 0.536931818181817  C 10.3162878787879 0.178977272727272  10.7348484848485 0  11.2272727272727 0  L 14.7727272727273 0  C 15.2651515151515 0  15.6837121212121 0.178977272727272  16.0284090909091 0.536931818181817  C 16.3731060606061 0.894886363636361  16.5454545454546 1.32954545454546  16.5454545454546 1.84090909090909  L 16.5454545454546 9.81818181818182  L 24.2272727272727 9.81818181818182  C 24.719696969697 9.81818181818182  25.1382575757576 9.99715909090909  25.4829545454546 10.3551136363636  Z " fill-rule="nonzero" fill="#ffffff" stroke="none" transform="matrix(1 0 0 1 570 93 )" />
  </g>
</svg>