<?xml version="1.0" encoding="utf-8"?>
<svg version="1.1" xmlns:xlink="http://www.w3.org/1999/xlink" width="17px" height="18px" xmlns="http://www.w3.org/2000/svg">
  <g transform="matrix(1 0 0 1 -401 -144 )">
    <path d="M 10.42578125 11.0390625  C 11.3214142628205 10.0907451923077  11.7692307692308 8.94951923076924  11.7692307692308 7.61538461538461  C 11.7692307692308 6.28124999999999  11.3214142628205 5.14002403846154  10.42578125 4.19170673076924  C 9.5301482371795 3.24338942307692  8.45232371794871 2.76923076923076  7.19230769230768 2.76923076923076  C 5.93229166666666 2.76923076923076  4.85446714743589 3.24338942307692  3.95883413461537 4.19170673076924  C 3.06320112179487 5.14002403846154  2.61538461538463 6.28124999999999  2.61538461538463 7.61538461538461  C 2.61538461538463 8.94951923076924  3.06320112179487 10.0907451923077  3.95883413461537 11.0390625  C 4.85446714743589 11.9873798076923  5.93229166666666 12.4615384615385  7.19230769230768 12.4615384615385  C 8.45232371794871 12.4615384615385  9.5301482371795 11.9873798076923  10.42578125 11.0390625  Z M 16.6219951923077 15.6418269230769  C 16.8739983974359 15.9086538461539  17 16.2331730769231  17 16.6153846153846  C 17 16.9903846153846  16.8705929487179 17.3149038461539  16.6117788461538 17.5889423076923  C 16.3529647435897 17.8629807692308  16.0464743589744 18  15.6923076923077 18  C 15.3245192307692 18  15.0180288461538 17.8629807692308  14.7728365384615 17.5889423076923  L 11.2686298076923 13.8894230769231  C 10.0494791666667 14.7836538461539  8.69070512820513 15.2307692307692  7.19230769230768 15.2307692307692  C 6.21834935897437 15.2307692307692  5.28695913461537 15.0306490384615  4.39813701923079 14.6304086538462  C 3.50931490384616 14.2301682692308  2.74308894230768 13.6893028846154  2.09945913461537 13.0078125  C 1.45582932692308 12.3263221153846  0.945012019230764 11.5150240384615  0.567007211538473 10.5739182692308  C 0.189002403846158 9.6328125  0 8.64663461538462  0 7.61538461538461  C 0 6.58413461538461  0.189002403846158 5.59795673076924  0.567007211538473 4.65685096153846  C 0.945012019230764 3.7157451923077  1.45582932692308 2.90444711538461  2.09945913461537 2.22295673076924  C 2.74308894230768 1.54146634615385  3.50931490384616 1.00060096153846  4.39813701923079 0.600360576923076  C 5.28695913461537 0.200120192307696  6.21834935897437 0  7.19230769230768 0  C 8.16626602564103 0  9.09765625 0.200120192307696  9.98647836538463 0.600360576923076  C 10.8753004807692 1.00060096153846  11.6415264423077 1.54146634615385  12.28515625 2.22295673076924  C 12.9287860576923 2.90444711538461  13.4396033653846 3.7157451923077  13.8176081730769 4.65685096153846  C 14.1956129807692 5.59795673076924  14.3846153846154 6.58413461538461  14.3846153846154 7.61538461538461  C 14.3846153846154 9.20192307692308  13.9623397435897 10.640625  13.1177884615385 11.9314903846154  L 16.6219951923077 15.6418269230769  Z " fill-rule="nonzero" fill="#ffffff" stroke="none" transform="matrix(1 0 0 1 401 144 )" />
  </g>
</svg>