<?xml version="1.0" encoding="utf-8"?>
<svg version="1.1" xmlns:xlink="http://www.w3.org/1999/xlink" width="24px" height="21px" xmlns="http://www.w3.org/2000/svg">
  <g transform="matrix(1 0 0 1 -10 -184 )">
    <path d="M 6.66666666666669 6.68181818181816  L 6.66666666666669 9.54545454545446  L 17.3333333333333 9.54545454545446  L 17.3333333333333 6.68181818181816  C 17.3333333333333 5.62784090909092  16.8125000000001 4.72798295454554  15.7708333333334 3.98224431818184  C 14.7291666666667 3.23650568181816  13.4722222222223 2.86363636363647  12 2.86363636363647  C 10.5277777777777 2.86363636363647  9.27083333333331 3.23650568181816  8.22916666666663 3.98224431818184  C 7.18749999999994 4.72798295454554  6.66666666666669 5.62784090909092  6.66666666666669 6.68181818181816  Z M 23.4166666666666 9.96306818181816  C 23.8055555555555 10.2414772727272  24 10.5795454545455  24 10.9772727272726  L 24 19.5681818181818  C 24 19.9659090909091  23.8055555555555 20.3039772727272  23.4166666666666 20.5823863636365  C 23.0277777777778 20.8607954545454  22.5555555555556 21  21.9999999999999 21  L 2.00000000000006 21  C 1.4444444444444 21  0.972222222222229 20.8607954545454  0.583333333333371 20.5823863636365  C 0.194444444444514 20.3039772727272  0 19.9659090909091  0 19.5681818181818  L 0 10.9772727272726  C 0 10.5795454545455  0.194444444444514 10.2414772727272  0.583333333333371 9.96306818181816  C 0.972222222222229 9.68465909090909  1.4444444444444 9.54545454545446  2.00000000000006 9.54545454545446  L 2.66666666666674 9.54545454545446  L 2.66666666666674 6.68181818181816  C 2.66666666666674 4.85227272727276  3.58333333333337 3.28125  5.41666666666663 1.96875  C 7.25000000000006 0.65625  9.44444444444446 0  12 0  C 14.5555555555555 0  16.7499999999999 0.65625  18.5833333333334 1.96875  C 20.4166666666666 3.28125  21.3333333333333 4.85227272727276  21.3333333333333 6.68181818181816  L 21.3333333333333 9.54545454545446  L 21.9999999999999 9.54545454545446  C 22.5555555555556 9.54545454545446  23.0277777777778 9.68465909090909  23.4166666666666 9.96306818181816  Z " fill-rule="nonzero" fill="#aeaeae" stroke="none" transform="matrix(1 0 0 1 10 184 )" />
  </g>
</svg>