<?xml version="1.0" encoding="utf-8"?>
<svg version="1.1" xmlns:xlink="http://www.w3.org/1999/xlink" width="30px" height="20px" xmlns="http://www.w3.org/2000/svg">
  <g transform="matrix(1 0 0 1 -258 -96 )">
    <path d="M 29.62890625 16.296875  C 29.8763020833333 16.4947916666667  30 16.7291666666667  30 17  L 30 19  C 30 19.2708333333333  29.8763020833333 19.5052083333333  29.62890625 19.703125  C 29.3815104166667 19.9010416666667  29.0885416666667 20  28.75 20  L 1.25 20  C 0.911458333333337 20  0.618489583333337 19.9010416666667  0.371093749999997 19.703125  C 0.123697916666666 19.5052083333333  0 19.2708333333333  0 19  L 0 17  C 0 16.7291666666667  0.123697916666666 16.4947916666667  0.371093749999997 16.296875  C 0.618489583333337 16.0989583333333  0.911458333333337 16  1.25 16  L 28.75 16  C 29.0885416666667 16  29.3815104166667 16.0989583333333  29.62890625 16.296875  Z M 29.62890625 8.296875  C 29.8763020833333 8.49479166666666  30 8.72916666666666  30 9  L 30 11  C 30 11.2708333333333  29.8763020833333 11.5052083333333  29.62890625 11.703125  C 29.3815104166667 11.9010416666667  29.0885416666667 12  28.75 12  L 1.25 12  C 0.911458333333337 12  0.618489583333337 11.9010416666667  0.371093749999997 11.703125  C 0.123697916666666 11.5052083333333  0 11.2708333333333  0 11  L 0 9  C 0 8.72916666666666  0.123697916666666 8.49479166666666  0.371093749999997 8.296875  C 0.618489583333337 8.09895833333334  0.911458333333337 8.00000000000001  1.25 8  L 28.75 8  C 29.0885416666667 8.00000000000001  29.3815104166667 8.09895833333334  29.62890625 8.296875  Z M 29.62890625 0.296874999999997  C 29.8763020833333 0.494791666666667  30 0.729166666666667  30 0.999999999999997  L 30 3.00000000000001  C 30 3.27083333333333  29.8763020833333 3.50520833333333  29.62890625 3.70312500000001  C 29.3815104166667 3.90104166666666  29.0885416666667 4  28.75 4  L 1.25 4  C 0.911458333333337 4  0.618489583333337 3.90104166666666  0.371093749999997 3.70312500000001  C 0.123697916666666 3.50520833333333  0 3.27083333333333  0 3.00000000000001  L 0 0.999999999999997  C 0 0.729166666666667  0.123697916666666 0.494791666666667  0.371093749999997 0.296874999999997  C 0.618489583333337 0.0989583333333347  0.911458333333337 0  1.25 0  L 28.75 0  C 29.0885416666667 0  29.3815104166667 0.0989583333333347  29.62890625 0.296874999999997  Z " fill-rule="nonzero" fill="#ffffff" stroke="none" transform="matrix(1 0 0 1 258 96 )" />
  </g>
</svg>