<?xml version="1.0" encoding="utf-8"?>
<svg version="1.1" xmlns:xlink="http://www.w3.org/1999/xlink" width="19px" height="15px" xmlns="http://www.w3.org/2000/svg">
  <g transform="matrix(1 0 0 1 -247 -86 )">
    <path d="M 17.9397321428571 5.76349431818159  C 18.3426339285715 5.48650568181841  18.696056547619 5.17755681818159  19 4.8366477272728  L 19 13.2954545454547  C 19 13.7642045454547  18.8338913690476 14.1654829545454  18.5016741071429 14.4992897727272  C 18.169456845238 14.833096590909  17.7700892857142 15  17.3035714285715 15  L 1.69642857142849 15  C 1.22991071428576 15  0.830543154762029 14.833096590909  0.498325892857121 14.4992897727272  C 0.166108630952364 14.1654829545454  0 13.7642045454547  0 13.2954545454547  L 0 4.8366477272728  C 0.311011904762029 5.18465909090907  0.66796875 5.49360795454538  1.07087053571424 5.76349431818159  C 3.62965029761897 7.51065340909088  5.38616071428576 8.73579545454528  6.34040178571424 9.43892045454528  C 6.74330357142849 9.73721590909089  7.07021949404764 9.96981534090902  7.32114955357152 10.13671875  C 7.57207961309524 10.303622159091  7.90606398809524 10.4740767045454  8.32310267857151 10.6480823863635  C 8.74014136904764 10.822088068182  9.12890625 10.9090909090909  9.48939732142849 10.9090909090909  L 9.5 10.9090909090909  L 9.51060267857151 10.9090909090909  C 9.87109375 10.9090909090909  10.2598586309524 10.822088068182  10.6768973214285 10.6480823863635  C 11.0939360119048 10.4740767045454  11.4279203869048 10.303622159091  11.6788504464285 10.13671875  C 11.9297805059524 9.96981534090902  12.2566964285715 9.73721590909089  12.6595982142858 9.43892045454528  C 13.8612351190476 8.56534090909089  15.6212797619048 7.34019886363649  17.9397321428571 5.76349431818159  Z M 18.4963727678571 0.500710227272805  C 18.8321242559524 0.834517045454624  19 1.23579545454527  19 1.70454545454527  C 19 2.26562500000012  18.8268229166666 2.80184659090912  18.48046875 3.3132102272728  C 18.1341145833334 3.82457386363649  17.7029389880952 4.26136363636351  17.1869419642858 4.62357954545473  C 14.5292038690476 6.4772727272728  12.8751860119048 7.63139204545462  12.2248883928571 8.0859375  C 12.1542038690476 8.13565340909098  12.0039992559524 8.24396306818199  11.7742745535715 8.4108664772728  C 11.5445498511905 8.57776988636346  11.3537016369048 8.71271306818199  11.2017299107142 8.8156960227272  C 11.0497581845239 8.91867897727276  10.865978422619 9.03409090909089  10.650390625 9.16193181818159  C 10.434802827381 9.2897727272728  10.2315848214285 9.38565340909089  10.0407366071429 9.44957386363649  C 9.84988839285712 9.51349431818159  9.67317708333339 9.54545454545472  9.51060267857151 9.54545454545472  L 9.5 9.54545454545472  L 9.48939732142849 9.54545454545472  C 9.32682291666661 9.54545454545472  9.15011160714288 9.51349431818159  8.95926339285712 9.44957386363649  C 8.76841517857151 9.38565340909089  8.56519717261897 9.2897727272728  8.349609375 9.16193181818159  C 8.13402157738103 9.03409090909089  7.95024181547609 8.91867897727276  7.79827008928576 8.8156960227272  C 7.64629836309524 8.71271306818199  7.45545014880949 8.57776988636346  7.22572544642849 8.4108664772728  C 6.99600074404764 8.24396306818199  6.84579613095236 8.13565340909098  6.77511160714288 8.0859375  C 6.13188244047609 7.63139204545462  5.20591517857152 6.98330965909088  3.99720982142849 6.14169034090912  C 2.78850446428576 5.3000710227272  2.06398809523797 4.79403409090912  1.82366071428576 4.62357954545473  C 1.38541666666661 4.32528409090912  0.971912202381029 3.91512784090912  0.583147321428486 3.39311079545473  C 0.194382440476092 2.87109375  0 2.38636363636351  0 1.93892045454527  C 0 1.38494318181841  0.146670386904758 0.923295454545376  0.440011160714243 0.553977272727195  C 0.733351934523908 0.184659090909014  1.15215773809524 0  1.69642857142849 0  L 17.3035714285715 0  C 17.7630208333334 0  18.160621279762 0.166903409090986  18.4963727678571 0.500710227272805  Z " fill-rule="nonzero" fill="#aeaeae" stroke="none" transform="matrix(1 0 0 1 247 86 )" />
  </g>
</svg>