<?xml version="1.0" encoding="utf-8"?>
<svg version="1.1" xmlns:xlink="http://www.w3.org/1999/xlink" width="20px" height="25px" xmlns="http://www.w3.org/2000/svg">
  <g transform="matrix(1 0 0 1 -13 -123 )">
    <path d="M 11.4713541666667 23.603515625  C 11.8793402777778 23.2975260416666  12.0833333333333 22.9296875  12.0833333333333 22.4999999999999  C 12.0833333333333 22.0703125  11.8793402777778 21.7024739583332  11.4713541666667 21.3964843750001  C 11.0633680555555 21.0904947916666  10.5729166666667 20.9374999999999  10 20.9374999999999  C 9.42708333333327 20.9374999999999  8.93663194444448 21.0904947916666  8.52864583333328 21.3964843750001  C 8.12065972222224 21.7024739583332  7.91666666666672 22.0703125  7.91666666666672 22.4999999999999  C 7.91666666666672 22.9296875  8.12065972222224 23.2975260416666  8.52864583333328 23.603515625  C 8.93663194444448 23.9095052083333  9.42708333333327 24.0624999999999  10 24.0624999999999  C 10.5729166666667 24.0624999999999  11.0633680555555 23.9095052083333  11.4713541666667 23.603515625  Z M 17.2526041666667 19.8144531249999  C 17.4175347222222 19.6907552083333  17.5 19.5442708333333  17.5 19.3749999999999  L 17.5 5.62500000000009  C 17.5 5.45572916666669  17.4175347222222 5.30924479166669  17.2526041666667 5.18554687500009  C 17.087673611111 5.06184895833333  16.892361111111 5.00000000000003  16.6666666666667 5  L 3.33333333333328 5  C 3.10763888888897 5.00000000000003  2.91232638888897 5.06184895833333  2.74739583333328 5.18554687500009  C 2.58246527777776 5.30924479166669  2.5 5.45572916666669  2.5 5.62500000000009  L 2.5 19.3749999999999  C 2.5 19.5442708333333  2.58246527777776 19.6907552083333  2.74739583333328 19.8144531249999  C 2.91232638888897 19.9381510416667  3.10763888888897 20  3.33333333333328 20  L 16.6666666666667 20  C 16.892361111111 20  17.087673611111 19.9381510416667  17.2526041666667 19.8144531249999  Z M 12.0833333333333 3.125  C 12.361111111111 3.125  12.5 3.02083333333343  12.5 2.81249999999997  C 12.5 2.60416666666667  12.361111111111 2.5000000000001  12.0833333333333 2.5000000000001  L 7.91666666666672 2.5000000000001  C 7.63888888888897 2.5000000000001  7.5 2.60416666666667  7.5 2.81249999999997  C 7.5 3.02083333333343  7.63888888888897 3.125  7.91666666666672 3.125  L 12.0833333333333 3.125  Z M 19.0104166666667 0.742187500000095  C 19.670138888889 1.23697916666667  20 1.82291666666667  20 2.5000000000001  L 20 22.4999999999999  C 20 23.1770833333333  19.670138888889 23.7630208333333  19.0104166666667 24.2578124999999  C 18.3506944444445 24.7526041666666  17.5694444444445 25  16.6666666666667 25  L 3.33333333333328 25  C 2.43055555555552 25  1.64930555555552 24.7526041666666  0.989583333333278 24.2578124999999  C 0.329861111111032 23.7630208333333  0 23.1770833333333  0 22.4999999999999  L 0 2.5000000000001  C 0 1.82291666666667  0.329861111111032 1.23697916666667  0.989583333333278 0.742187500000095  C 1.64930555555552 0.24739583333336  2.43055555555552 0  3.33333333333328 0  L 16.6666666666667 0  C 17.5694444444445 0  18.3506944444445 0.24739583333336  19.0104166666667 0.742187500000095  Z " fill-rule="nonzero" fill="#aeaeae" stroke="none" transform="matrix(1 0 0 1 13 123 )" />
  </g>
</svg>