<?xml version="1.0" encoding="utf-8"?>
<svg version="1.1" xmlns:xlink="http://www.w3.org/1999/xlink" width="23px" height="15px" xmlns="http://www.w3.org/2000/svg">
  <g transform="matrix(1 0 0 1 -301 -157 )">
    <path d="M 22.5732421875 0.494791666666667  C 22.8577473958333 0.824652777777776  23 1.21527777777777  23 1.66666666666667  C 23 2.11805555555555  22.8577473958333 2.50868055555555  22.5732421875 2.83854166666667  L 12.5107421875 14.5052083333333  C 12.2262369791667 14.8350694444444  11.8893229166667 15  11.5 15  C 11.1106770833333 15  10.7737630208333 14.8350694444444  10.4892578125 14.5052083333333  L 0.4267578125 2.83854166666667  C 0.142252604166667 2.50868055555555  0 2.11805555555555  0 1.66666666666667  C 0 1.21527777777777  0.142252604166667 0.824652777777776  0.4267578125 0.494791666666667  C 0.711263020833333 0.164930555555554  1.04817708333333 0  1.4375 0  L 21.5625 0  C 21.9518229166667 0  22.2887369791667 0.164930555555554  22.5732421875 0.494791666666667  Z " fill-rule="nonzero" fill="#000000" stroke="none" transform="matrix(1 0 0 1 301 157 )" />
  </g>
</svg>